<svg width="609" height="503" viewBox="0 0 609 503" fill="none" xmlns="http://www.w3.org/2000/svg">
<path d="M300.998 19.4576C242.608 11.3963 180.935 13.3694 127.803 38.8903C54.1225 74.2769 5.72887 154.513 3.87257 236.242C2.01627 317.959 44.5944 398.26 110.357 446.809C176.119 495.346 262.859 512.559 343.29 497.981C424.396 483.286 500.518 435.632 542.823 364.898C569.954 319.542 582.636 263.529 567.643 212.837C558.595 182.241 540.097 155.136 518.341 131.809C464.404 73.9653 389.399 31.6858 300.998 19.4705V19.4576Z" fill="#EAE3C3"/>
<g style="mix-blend-mode:multiply" opacity="0.15">
<path d="M20.5792 211.409C23.3441 194.962 12.9592 179.346 10.35 162.873C9.37645 156.746 9.72694 149.814 13.9588 145.258C19.2032 139.611 28.7962 139.961 35.144 144.336C41.4918 148.711 45.1265 156.058 47.4761 163.392C51.643 176.386 52.5906 190.406 50.2151 203.854L20.5792 211.422V211.409Z" fill="#BDE59C"/>
</g>
<path d="M16.6719 211.397C17.6195 194.742 5.59901 180.359 1.1984 164.262C-0.437218 158.278 -0.839634 151.346 2.85999 146.361C7.4553 140.169 17.0224 139.468 23.8115 143.129C30.6006 146.776 35.0142 153.682 38.1557 160.718C43.7116 173.18 46.191 187.018 45.2953 200.635L16.6719 211.397Z" fill="#BDE59C"/>
<path d="M22.6042 177.035C27.563 186.577 30.2761 197.273 30.4578 208.034L22.6042 177.035Z" fill="#BDE59C"/>
<g style="mix-blend-mode:multiply" opacity="0.15">
<path d="M144.627 215.278C146.873 204.919 145.588 194.093 143.069 183.786C140.551 173.492 136.812 163.522 134.06 153.293C132.723 148.347 131.62 143.272 131.854 138.157C132.087 133.042 133.801 127.837 137.436 124.228C141.473 120.23 147.496 118.633 153.156 119.192C158.815 119.75 164.125 122.268 168.785 125.513C181.052 134.055 189.243 147.62 193.345 161.99C197.447 176.36 197.759 191.574 196.668 206.477L144.64 215.291L144.627 215.278Z" fill="#BDE59C"/>
</g>
<path d="M137.643 216.939C138.902 206.412 136.618 195.754 133.139 185.733C129.66 175.711 125.013 166.157 121.3 156.227C119.509 151.424 117.925 146.478 117.678 141.363C117.432 136.249 118.639 130.901 121.923 126.967C125.558 122.606 131.412 120.451 137.098 120.477C142.784 120.503 148.301 122.502 153.259 125.306C166.28 132.653 175.704 145.387 181.13 159.316C186.569 173.245 188.309 188.355 188.62 203.296L137.656 216.965L137.643 216.939Z" fill="#BDE59C"/>
<path d="M139.045 143.427C156.18 163.938 163.488 192.301 158.426 218.549L139.045 143.427Z" fill="#BDE59C"/>
<g style="mix-blend-mode:multiply" opacity="0.15">
<path d="M117.73 222.794C117.302 216.122 112.862 210.436 108.15 205.685C103.451 200.934 98.1675 196.494 95.2597 190.471C92.352 184.461 92.6505 176.205 97.9988 172.194C101.789 169.351 107.047 169.39 111.642 170.571C121.482 173.115 129.699 180.294 135.021 188.939C140.343 197.585 143.017 207.632 144.458 217.692L117.73 222.781V222.794Z" fill="#BDE59C"/>
</g>
<path d="M118.522 219.601C118.717 212.928 114.822 206.84 110.578 201.687C106.333 196.52 101.491 191.6 99.1542 185.343C96.8176 179.086 97.8821 170.895 103.581 167.403C107.618 164.924 112.849 165.456 117.315 167.066C126.869 170.506 134.385 178.411 138.889 187.524C143.394 196.624 145.12 206.879 145.614 217.017L118.535 219.601H118.522Z" fill="#BDE59C"/>
<path d="M112.68 178.295C119.119 184.019 122.948 192.21 124.869 200.609C126.791 209.008 126.959 217.692 127.115 226.312" fill="#BDE59C"/>
<g style="mix-blend-mode:multiply" opacity="0.15">
<path d="M402.912 230.141C401.679 224.533 404.846 218.977 408.118 214.239C414.465 205.049 421.839 196.273 431.38 190.471C440.934 184.668 452.981 182.189 463.469 186.044C468.129 187.758 472.608 191.029 473.971 195.793C475.321 200.518 473.283 205.646 470.168 209.462C467.052 213.279 462.963 216.122 459.289 219.406C449.852 227.844 443.206 239.358 440.609 251.755L402.912 230.128V230.141Z" fill="#BDE59C"/>
</g>
<path d="M396.707 229.7C394.864 224.261 397.421 218.38 400.147 213.331C405.443 203.504 411.817 193.976 420.683 187.174C429.536 180.372 441.258 176.594 452.097 179.268C456.913 180.462 461.729 183.227 463.599 187.81C465.455 192.366 463.988 197.688 461.301 201.816C458.627 205.944 454.862 209.229 451.578 212.889C443.114 222.314 437.766 234.477 436.546 247.095L396.72 229.713L396.707 229.7Z" fill="#BDE59C"/>
<path d="M416.386 242.045C416.958 225.741 426.68 210.059 441.025 202.284L416.386 242.045Z" fill="#BDE59C"/>
<g style="mix-blend-mode:multiply" opacity="0.15">
<path d="M374.016 213.98C385.102 195.806 387.945 173.972 391.074 152.917C392.359 144.31 394.578 134.47 402.328 130.511C410.156 126.5 420.294 131.082 425.019 138.507C429.744 145.933 430.225 155.266 429.627 164.041C427.927 189.264 418.386 213.902 402.627 233.672L374.016 213.993V213.98Z" fill="#BDE59C"/>
</g>
<path d="M371.213 213.486C380.533 194.339 381.286 172.336 382.402 151.073C382.857 142.389 384.142 132.38 391.476 127.694C398.888 122.956 409.416 126.552 414.816 133.497C420.216 140.442 421.579 149.684 421.826 158.485C422.527 183.76 415.361 209.19 401.55 230.362L371.2 213.473L371.213 213.486Z" fill="#BDE59C"/>
<path d="M402.601 151.034C401.523 176.451 394.254 201.596 381.61 223.664L402.601 151.034Z" fill="#BDE59C"/>
<g style="mix-blend-mode:multiply" opacity="0.15">
<path d="M531.114 224.196C537.578 203.893 552.559 186.447 571.654 177.009C578.17 173.79 585.466 171.428 592.657 172.505C599.849 173.582 606.781 178.866 607.858 186.07C608.741 191.964 605.677 197.74 602.03 202.44C596.409 209.683 589.217 215.524 582.727 222.002C576.236 228.48 570.265 235.97 568.058 244.875L531.114 224.209V224.196Z" fill="#BDE59C"/>
</g>
<path d="M522.702 221.924C528.038 201.297 542.031 183.059 560.581 172.57C566.916 168.987 574.056 166.235 581.299 166.91C588.543 167.585 595.76 172.492 597.227 179.606C598.434 185.447 595.695 191.38 592.307 196.273C587.089 203.816 580.235 210.046 574.108 216.875C567.981 223.703 562.438 231.504 560.724 240.513L522.702 221.911V221.924Z" fill="#BDE59C"/>
<path d="M537.955 236.255C543.329 218.16 555.596 202.193 571.693 192.327L537.955 236.255Z" fill="#BDE59C"/>
<path d="M542.81 364.885C565.137 327.552 577.664 282.987 573.043 240.124C550.456 220.172 517.808 211.773 488.51 219.198C466.377 224.806 444.491 238.67 422.423 232.789C411.428 229.856 402.185 222.275 391.333 218.874C375.327 213.863 357.907 218.471 341.291 216.225C305.32 211.345 278.371 175.517 242.102 174.063C207.871 172.687 179.676 202.465 145.691 206.853C128.621 209.06 111.473 204.659 94.8441 200.233C78.2153 195.806 61.1191 191.289 44.023 193.249C28.9649 194.975 13.725 202.933 5.27433 216.251C4.50844 222.885 4.01516 229.557 3.85938 236.242C2.00308 317.959 44.5812 398.26 110.344 446.809C176.106 495.346 262.846 512.559 343.277 497.981C424.383 483.286 500.504 435.633 542.81 364.898V364.885Z" fill="#E8D99C"/>
<path d="M43.8542 375.114C61.3918 402.803 84.0049 427.351 110.344 446.796C176.106 495.333 262.846 512.546 343.277 497.968C420.398 483.987 493.001 440.202 536.306 375.114H43.8542Z" fill="#E5D285"/>
<path d="M180.792 271.85H148.729C147.073 271.85 145.73 273.192 145.73 274.848V372.116C145.73 373.772 147.073 375.114 148.729 375.114H180.792C182.448 375.114 183.791 373.772 183.791 372.116V274.848C183.791 273.192 182.448 271.85 180.792 271.85Z" fill="#7DD27F"/>
<path d="M175.418 286.583H154.129V348.672H175.418V286.583Z" fill="white"/>
<path d="M170.239 364.418C170.239 361.393 167.785 358.94 164.761 358.94C161.736 358.94 159.282 361.393 159.282 364.418C159.282 367.443 161.736 369.896 164.761 369.896C167.785 369.896 170.239 367.443 170.239 364.418Z" stroke="#48BF4B" stroke-width="1.5" stroke-linecap="round" stroke-linejoin="round"/>
<path d="M221.423 271.85H189.36C187.704 271.85 186.361 273.192 186.361 274.848V372.116C186.361 373.772 187.704 375.114 189.36 375.114H221.423C223.079 375.114 224.422 373.772 224.422 372.116V274.848C224.422 273.192 223.079 271.85 221.423 271.85Z" fill="#7DD27F"/>
<path d="M216.036 286.583H194.747V348.672H216.036V286.583Z" fill="white"/>
<path d="M210.869 364.418C210.869 361.393 208.416 358.94 205.391 358.94C202.367 358.94 199.913 361.393 199.913 364.418C199.913 367.443 202.367 369.896 205.391 369.896C208.416 369.896 210.869 367.443 210.869 364.418Z" stroke="#48BF4B" stroke-width="1.5" stroke-linecap="round" stroke-linejoin="round"/>
<path d="M140.161 271.85H108.098C106.442 271.85 105.099 273.192 105.099 274.848V372.116C105.099 373.772 106.442 375.114 108.098 375.114H140.161C141.817 375.114 143.16 373.772 143.16 372.116V274.848C143.16 273.192 141.817 271.85 140.161 271.85Z" fill="#7DD27F"/>
<path d="M134.787 286.583H113.498V348.672H134.787V286.583Z" fill="white"/>
<path d="M129.608 364.418C129.608 361.393 127.154 358.94 124.13 358.94C121.105 358.94 118.652 361.393 118.652 364.418C118.652 367.443 121.105 369.896 124.13 369.896C127.154 369.896 129.608 367.443 129.608 364.418Z" stroke="#48BF4B" stroke-width="1.5" stroke-linecap="round" stroke-linejoin="round"/>
<path d="M99.5303 271.85H67.4669C65.8108 271.85 64.4683 273.192 64.4683 274.848V372.116C64.4683 373.772 65.8108 375.114 67.4669 375.114H99.5303C101.186 375.114 102.529 373.772 102.529 372.116V274.848C102.529 273.192 101.186 271.85 99.5303 271.85Z" fill="#7DD27F"/>
<path d="M94.1562 286.583H72.8672V348.672H94.1562V286.583Z" fill="white"/>
<path d="M88.9895 364.418C88.9895 361.393 86.5361 358.94 83.5115 358.94C80.4869 358.94 78.0334 361.393 78.0334 364.418C78.0334 367.443 80.4869 369.896 83.5115 369.896C86.5361 369.896 88.9895 367.443 88.9895 364.418Z" stroke="#48BF4B" stroke-width="1.5" stroke-linecap="round" stroke-linejoin="round"/>
<g style="mix-blend-mode:multiply" opacity="0.15">
<path d="M178.456 95.4232C178.78 71.5509 177.833 47.6526 175.626 23.8842C174.886 15.9267 168.33 9.73473 160.347 9.43617C119.833 7.9044 79.9549 9.56598 40.2976 13.1747C32.3271 13.9017 26.1481 20.4182 25.7457 28.4146C24.6163 51.3782 24.4736 75.1336 25.1226 100.356C25.3433 108.911 32.2363 115.778 40.8038 115.985C80.565 116.933 120.742 115.687 164.086 111.065C172.134 110.209 178.339 103.523 178.456 95.4232Z" fill="#48BF4B"/>
</g>
<path d="M167.785 87.5566C168.11 63.6843 167.162 39.786 164.955 16.0176C164.215 8.06016 157.66 1.86816 149.677 1.56959C109.163 0.0378176 69.2845 1.6994 29.6271 5.30816C21.6567 6.0351 15.4777 12.5516 15.0753 20.548C13.9459 43.5116 13.8031 67.2671 14.4522 92.4894C14.6729 101.044 21.5659 107.911 30.1334 108.119C69.8946 109.066 110.071 107.82 153.415 103.199C161.463 102.342 167.668 95.6568 167.785 87.5566Z" fill="white"/>
<path d="M167.785 87.5566C168.11 63.6843 167.162 39.786 164.955 16.0176C164.215 8.06016 157.66 1.86816 149.677 1.56959C109.163 0.0378176 69.2845 1.6994 29.6271 5.30816C21.6567 6.0351 15.4777 12.5516 15.0753 20.548C13.9459 43.5116 13.8031 67.2671 14.4522 92.4894C14.6729 101.044 21.5659 107.911 30.1334 108.119C69.8946 109.066 110.071 107.82 153.415 103.199C161.463 102.342 167.668 95.6568 167.785 87.5566Z" stroke="#48BF4B" stroke-width="1.5" stroke-linecap="round" stroke-linejoin="round"/>
<path d="M81.5775 44.3294C73.5681 50.0931 65.3381 55.5451 56.9134 60.6727C57.6273 50.3916 58.0947 40.6558 58.0557 30.6214C53.733 30.5305 49.3973 31.4262 45.5159 33.3604C35.2738 38.475 28.965 50.5215 30.6136 61.867C32.2492 73.1995 41.7125 82.9743 52.9931 84.9734C64.2737 86.9725 76.5149 81.066 81.954 70.9927C86.3026 62.9444 86.1858 52.5984 81.5905 44.3554L81.5775 44.3294Z" fill="#48BF4B"/>
<path d="M62.2615 23.9231C62.3004 33.9705 61.8201 43.6934 61.1191 53.9744C69.5569 48.8598 77.7739 43.3948 85.7833 37.6312C84.628 35.5542 83.1871 33.594 81.4606 31.8546C76.4369 26.8049 69.3622 24.0529 62.2615 23.9101V23.9231Z" fill="#48BF4B"/>
<path d="M150.326 25.5068H101.62V32.3219H150.326V25.5068Z" fill="#7DD27F"/>
<path d="M124.389 38.7346H101.62V45.5496H124.389V38.7346Z" fill="#7DD27F"/>
<path d="M101.62 70.097H135.345" stroke="#48BF4B" stroke-width="1.5" stroke-linecap="round" stroke-linejoin="round"/>
<path d="M101.62 61.114H150.326" stroke="#48BF4B" stroke-width="1.5" stroke-linecap="round" stroke-linejoin="round"/>
<path d="M101.62 79.0929H145.445" stroke="#48BF4B" stroke-width="1.5" stroke-linecap="round" stroke-linejoin="round"/>
<g style="mix-blend-mode:multiply" opacity="0.15">
<path d="M404.449 73.6663C406.789 73.7342 409.13 73.8041 411.47 73.8741L411.482 73.8745L411.489 73.8747C414.2 73.9558 416.91 74.0368 419.621 74.1146L420.122 74.129L420.106 74.63C419.029 109.106 419.47 144.102 421.482 179.98C421.973 188.714 429.05 195.906 438.277 196.945L438.278 196.945C476.801 201.303 516.069 202.275 558.175 197.438C567.463 196.374 574.503 189.057 574.906 180.271C577.164 129.854 577.203 79.3464 574.997 28.9167L574.969 28.2734C574.26 19.6112 567.083 12.5644 557.821 11.6864C517.547 7.87296 478.722 8.01532 440.294 10.6619L404.449 73.6663ZM404.449 73.6663C409.271 68.6119 414.663 65.0601 420.33 62.1159L420.587 61.9826L420.599 61.6937C421.092 50.223 421.741 38.8046 422.572 27.4255L422.572 27.4249C423.214 18.4669 430.77 11.3215 440.294 10.6619L404.449 73.6663Z" fill="#48BF4B"/>
<path d="M404.449 73.6663C406.789 73.7342 409.13 73.8041 411.47 73.8741L411.482 73.8745L411.489 73.8747C414.2 73.9558 416.91 74.0368 419.621 74.1146L420.122 74.129L420.106 74.63C419.029 109.106 419.47 144.102 421.482 179.98C421.973 188.714 429.05 195.906 438.277 196.945L438.278 196.945C476.801 201.303 516.069 202.275 558.175 197.438C567.463 196.374 574.503 189.057 574.906 180.271C577.164 129.854 577.203 79.3464 574.997 28.9167L574.969 28.2734C574.26 19.6112 567.083 12.5644 557.821 11.6864C517.547 7.87296 478.722 8.01532 440.294 10.6619L404.449 73.6663ZM404.449 73.6663C409.271 68.6119 414.663 65.0601 420.33 62.1159L420.587 61.9826L420.599 61.6937C421.092 50.223 421.741 38.8046 422.572 27.4255L422.572 27.4249C423.214 18.4669 430.77 11.3215 440.294 10.6619L404.449 73.6663Z" stroke="#3F62E0"/>
</g>
<path d="M396.972 67.0329C401.794 61.9785 407.185 58.4267 412.853 55.4826L413.11 55.3492L413.122 55.0603C413.615 43.5896 414.264 32.1712 415.094 20.7921L415.094 20.7915C415.737 11.8336 423.292 4.68812 432.816 4.02857L396.972 67.0329ZM396.972 67.0329C399.316 67.1009 401.661 67.171 404.005 67.2411C406.718 67.3223 409.431 67.4034 412.144 67.4812L412.645 67.4956L412.629 67.9967C411.552 102.473 411.993 137.468 414.004 173.347C414.496 182.08 421.573 189.272 430.8 190.312L430.8 190.312C469.324 194.67 508.592 195.642 550.698 190.805C559.986 189.741 567.026 182.423 567.429 173.637C569.7 123.221 569.726 72.7132 567.52 22.2834L567.492 21.6412C566.783 12.9784 559.606 5.93104 550.344 5.05302C510.069 1.23958 471.245 1.38194 432.817 4.02856L396.972 67.0329Z" fill="white" stroke="#3F62E0"/>
<path d="M568.032 22.2745C567.63 13.0449 560.114 5.47691 550.391 4.55525C510.085 0.738803 471.232 0.881599 432.782 3.52975C423.033 4.20477 415.258 11.5261 414.596 20.7557C413.765 32.1402 413.116 43.5635 412.622 55.0389C406.625 58.1543 400.913 61.9578 395.851 67.5007C401.277 67.6565 406.703 67.8253 412.129 67.981C411.052 102.472 411.493 137.482 413.505 173.375C414.011 182.371 421.294 189.744 430.744 190.808C469.298 195.17 508.605 196.144 550.755 191.302C560.27 190.211 567.513 182.708 567.929 173.66C570.2 123.229 570.226 72.7062 568.02 22.2615L568.032 22.2745Z" stroke="#3F62E0" stroke-width="1.5" stroke-linecap="round" stroke-linejoin="round"/>
<path d="M517.023 63.6583V63.1583H516.523H504.512L524.13 29.1811L543.736 63.1583H531.737H531.237V63.6583V167.384H517.023V63.6583Z" fill="#BAE7BB" stroke="#3F62E0"/>
<path d="M483.13 167.397V83.0848H497.344V167.397H483.13Z" fill="#48BF4B" stroke="#3F62E0"/>
<path d="M449.236 167.397V118.458H463.449V167.397H449.236Z" fill="#48BF4B" stroke="#3F62E0"/>
<path d="M391.203 378.256C419.204 378.84 447.23 378.321 475.191 376.685C481.059 376.348 485.862 371.882 486.641 366.054C489.471 344.881 490.548 324.644 490.301 304.16C490.224 297.851 485.408 292.58 479.125 292.061C451.358 289.725 420.112 289.439 391.385 290.179C385.063 290.348 379.923 295.306 379.482 301.615C377.976 323.112 377.599 344.752 379.235 366.897C379.702 373.193 384.882 378.126 391.203 378.256Z" fill="#7DD27F"/>
<g style="mix-blend-mode:multiply" opacity="0.15">
<path d="M390.334 378.191C384.427 377.646 379.689 372.908 379.248 366.897C379.17 365.885 379.118 364.872 379.053 363.86C383.259 362.692 387.53 364.366 389.763 367.624C391.866 370.688 392.008 374.907 390.321 378.191H390.334Z" fill="#2E2854"/>
<path d="M487.108 362.367C486.952 363.6 486.809 364.82 486.654 366.054C485.901 371.661 481.422 375.997 475.84 376.62C474.205 373.349 474.373 369.169 476.45 366.145C478.67 362.899 482.915 361.238 487.108 362.367Z" fill="#2E2854"/>
</g>
<path d="M459.9 323.956C462.185 323.826 464.469 323.891 466.923 324.813C467.286 328.369 466.858 332.004 465.663 335.379C465.261 336.522 464.664 337.742 463.522 338.144C462.288 338.586 460.873 337.82 460.185 336.703C459.497 335.587 459.355 334.224 459.316 332.926C459.212 330.044 459.445 327.136 459.9 323.956Z" fill="#E8C32E"/>
<path d="M406.599 323.956C408.884 323.826 411.168 323.891 413.622 324.813C413.985 328.369 413.557 332.004 412.363 335.379C411.96 336.522 411.363 337.742 410.221 338.144C408.988 338.586 407.573 337.82 406.885 336.703C406.197 335.587 406.054 334.224 406.015 332.926C405.911 330.044 406.145 327.136 406.599 323.956Z" fill="#E8C32E"/>
<path d="M455.836 302.537C458.082 302.537 459.99 300.785 460.133 298.513C460.575 291.659 460.691 284.909 460.743 278.639C460.782 273.693 457.122 269.513 452.228 268.903C444.024 267.89 435.677 267.54 427.421 267.838C425.045 267.929 423.189 269.928 423.267 272.304C423.345 274.679 425.357 276.549 427.732 276.458C435.534 276.172 443.426 276.51 451.176 277.47C451.721 277.535 452.137 278.016 452.124 278.574C452.072 284.727 451.968 291.321 451.54 297.955C451.384 300.33 453.188 302.381 455.564 302.537C455.655 302.537 455.759 302.537 455.849 302.537H455.836Z" fill="black"/>
<path d="M421.059 302.225C418.814 302.018 417.1 300.304 417.165 298.02C417.373 291.166 417.905 282.91 418.437 276.666C418.866 271.746 422.903 267.916 427.849 267.786C436.105 267.566 444.451 267.994 452.643 269.072C455.005 269.383 456.667 271.551 456.355 273.914C456.044 276.276 453.876 277.938 451.513 277.626C443.763 276.601 435.884 276.198 428.082 276.406C427.524 276.419 427.083 276.86 427.031 277.418C426.499 283.546 425.979 291.633 425.785 298.279C425.72 300.655 423.734 302.316 421.345 302.238C421.254 302.238 421.15 302.238 421.059 302.225Z" fill="black"/>
<g style="mix-blend-mode:multiply" opacity="0.15">
<path d="M386.673 326.318C383.519 325.124 380.533 323.099 378.495 320.451C378.716 314.155 379.053 307.872 379.481 301.615C379.923 295.306 385.05 290.348 391.385 290.179C420.125 289.439 451.358 289.725 479.125 292.061C485.42 292.593 490.236 297.851 490.301 304.16C490.379 310.663 490.301 317.141 490.107 323.631C488.549 324.839 486.835 325.916 485.031 326.656C481.37 328.162 477.346 328.486 473.4 328.746C449.709 330.252 425.928 329.421 402.211 328.577C396.954 328.395 391.58 328.188 386.66 326.318H386.673Z" fill="#2E2854"/>
</g>
<g style="mix-blend-mode:multiply" opacity="0.15">
<path d="M391.385 290.179C402.497 289.893 413.972 289.764 425.487 289.841C429.031 301.524 441.155 350.437 397.071 353.748L399.615 378.386C396.811 378.347 394.007 378.308 391.203 378.256C384.882 378.126 379.702 373.206 379.235 366.897C377.599 344.752 377.976 323.112 379.482 301.615C379.923 295.307 385.05 290.348 391.385 290.179Z" fill="#2E2854"/>
</g>
<mask id="mask0_4_61" style="mask-type:luminance" maskUnits="userSpaceOnUse" x="4" y="15" width="572" height="488">
<path d="M302.166 19.4576C243.777 11.3963 182.104 13.3694 128.972 38.8903C55.291 74.2769 6.89732 154.513 5.04102 236.242C3.18472 317.959 45.7628 398.26 111.525 446.809C177.288 495.346 264.027 512.559 344.459 497.981C425.565 483.286 501.686 435.632 543.991 364.898C571.122 319.542 583.805 263.529 568.811 212.837C559.763 182.241 541.265 155.136 519.509 131.809C465.572 73.9653 390.567 31.6858 302.166 19.4705V19.4576Z" fill="white"/>
</mask>
<g mask="url(#mask0_4_61)">
<path d="M273.568 74.4327C273.568 74.4327 296.272 41.3178 324.649 57.8298C360.191 78.4958 317.263 127.733 343.537 141.973C369.811 156.227 396.967 157.33 404.535 196.741C414.427 248.263 321.235 320.698 242.44 274.835C163.631 228.973 191.671 143.155 228.68 126.072C273.205 105.522 273.568 74.4327 273.568 74.4327Z" fill="#1D1615"/>
<path d="M305.93 162.315V197.637C305.93 203.53 303.529 208.852 299.673 212.721C295.831 216.589 290.509 218.978 284.615 218.978C272.828 218.978 263.3 209.423 263.3 197.637V162.315H305.943H305.93Z" fill="#D28A7B"/>
<path d="M216.698 138.092C218.464 146.738 226.915 152.306 235.547 150.541C244.192 148.776 249.761 140.325 247.996 131.692C246.23 123.047 237.78 117.478 229.147 119.244C220.502 121.009 214.933 129.46 216.698 138.092Z" fill="#D28A7B"/>
<path d="M240.662 111.351V138.274C240.662 138.274 229.965 128.772 230.264 110.079L240.662 111.351Z" fill="#1D1615"/>
<path d="M221.073 132.043L233.729 140.61" stroke="#1D1615" stroke-width="0.25" stroke-miterlimit="10"/>
<path d="M309.189 134.899C310.954 143.544 319.405 149.113 328.037 147.348C336.683 145.582 342.252 137.131 340.486 128.499C338.721 119.867 330.27 114.285 321.638 116.05C312.992 117.816 307.423 126.266 309.189 134.899Z" fill="#D28A7B"/>
<path d="M324.844 131.692C324.844 131.692 333.983 121.697 330.763 98.0064H317.951L324.831 131.692H324.844Z" fill="#1D1615"/>
<path d="M322.208 138.741L334.593 126.734" stroke="#1D1615" stroke-width="0.25" stroke-miterlimit="10"/>
<path d="M282.746 69.2532C259.497 69.2532 240.662 88.1018 240.662 111.338V141.986C240.662 148.464 243.998 154.487 249.489 157.914L272.79 172.492C278.891 176.309 286.628 176.309 292.729 172.492L316.03 157.914C321.521 154.474 324.857 148.464 324.857 141.986V111.338C324.857 88.0888 306.009 69.2532 282.772 69.2532H282.746Z" fill="#D28A7B"/>
<path d="M263.288 166.91L272.777 172.856C278.878 176.672 286.615 176.672 292.716 172.856" stroke="#1D1615" stroke-width="0.25" stroke-miterlimit="10"/>
<path d="M279.215 69.2532L289.782 141.986H276.528" stroke="#1D1615" stroke-width="0.25" stroke-miterlimit="10"/>
<path d="M322.962 132.731C322.962 138.676 318.146 143.505 312.187 143.505C306.229 143.505 301.413 138.689 301.413 132.731C301.413 126.773 306.229 121.957 312.187 121.957C318.146 121.957 322.962 126.773 322.962 132.731Z" fill="#CB705D"/>
<path d="M254.863 143.505C260.813 143.505 265.637 138.681 265.637 132.731C265.637 126.78 260.813 121.957 254.863 121.957C248.912 121.957 244.089 126.78 244.089 132.731C244.089 138.681 248.912 143.505 254.863 143.505Z" fill="#CB705D"/>
<path d="M305.917 122.45C305.917 126.175 304.256 129.187 302.205 129.187C300.154 129.187 298.492 126.162 298.492 122.45C298.492 118.737 300.154 115.713 302.205 115.713C304.256 115.713 305.917 118.737 305.917 122.45Z" fill="#1D1615"/>
<path d="M267 122.45C267 126.175 265.339 129.187 263.288 129.187C261.237 129.187 259.575 126.162 259.575 122.45C259.575 118.737 261.237 115.713 263.288 115.713C265.339 115.713 267 118.737 267 122.45Z" fill="#1D1615"/>
<path d="M270.868 149.087C270.868 149.087 276.918 160.653 286.705 152.021" stroke="#1D1615" stroke-width="0.25" stroke-miterlimit="10"/>
<path d="M331.958 63.5285C303.555 47.0165 273.556 74.4197 273.556 74.4197C273.556 74.4197 273.192 105.509 228.68 126.059C219.294 130.394 206.716 145.829 200.822 155.214C200.822 155.214 213.829 117.686 217.931 93.4111C222.046 69.1104 243.634 72.8749 243.634 72.8749C243.634 72.8749 256.706 40.9154 292.871 41.0712C317.925 41.175 331.958 63.5415 331.958 63.5415V63.5285Z" fill="#332E2C"/>
<path d="M299.453 94.7222C302.815 89.5816 306.086 88.9585 308.254 95.8126L299.453 94.7222Z" fill="#1D1615"/>
<path d="M253.331 96.6693C253.824 90.5422 256.394 88.4393 261.587 93.4111L253.331 96.6693Z" fill="#1D1615"/>
<path d="M370.46 344.739C359.867 348.062 348.586 342.168 345.263 331.576L315.368 236.255C312.045 225.663 317.938 214.382 328.531 211.059C339.123 207.736 350.404 213.629 353.727 224.222L384.272 324.631C384.272 324.631 381.052 341.428 370.46 344.752V344.739Z" fill="#D28A7B"/>
<path d="M105.762 300.59C98.8427 291.905 100.271 279.262 108.955 272.33L187.075 210.072C195.76 203.153 208.403 204.581 215.335 213.266C222.254 221.95 220.826 234.594 212.142 241.526L134.021 303.783C125.337 310.702 112.681 309.274 105.762 300.59Z" fill="#D28A7B"/>
<path d="M376.976 256.246L338.902 262.802L302.516 285.142L342.355 277.185L376.976 256.246Z" fill="#CB9824"/>
<path d="M354.688 222.573L374.237 271.863L317.055 294.268L305.658 260.05L354.688 222.573Z" fill="#E8C32E"/>
<path d="M376.976 256.246L342.355 277.185L302.516 285.142L315.406 305.432L349.638 295.294L383.609 274.952L376.976 256.246Z" fill="white"/>
<path d="M320.859 359.239H240.428L195.435 217.095C189.399 198.026 207.533 180.151 226.512 186.447L289.782 207.463L332.36 206.191C347.639 205.737 359.01 220.185 354.96 234.931L320.846 359.239H320.859Z" fill="#E8C32E"/>
<path d="M310.448 226.844L316.445 187.394L248.735 180.826L255.031 226.844H310.448Z" fill="#E8C32E"/>
<path d="M251.617 199.35C260.73 221.665 277.203 231.725 290.275 231.725C300.998 231.725 309.357 225.182 313.252 214.213C311.642 232.88 305.84 279.872 288.133 279.872C287.017 279.872 285.849 279.677 284.667 279.301C263.287 272.499 254.071 217.329 251.617 199.35ZM250.267 193.781C250.267 193.781 258.303 271.59 284.473 279.924C285.745 280.326 286.965 280.521 288.133 280.521C311.006 280.521 314.446 206.736 314.446 206.736C311.941 223.092 301.919 231.076 290.275 231.076C275.581 231.076 258.303 218.367 250.267 193.781Z" fill="#FDFDFF"/>
<path d="M224.24 334.458L336.06 328.395L326.259 356.72L233.171 355.721L224.24 334.458Z" fill="#4D87FA"/>
<path d="M326.259 356.72C326.259 356.72 364.553 392.133 366.825 455.286H195.552C195.552 395.936 233.171 355.708 233.171 355.708L326.259 356.72Z" fill="#4D87FA"/>
<path d="M282.318 363.107L284.616 409.982C284.616 409.982 275.49 406.295 275.71 390.575" stroke="#1D1615" stroke-width="0.25" stroke-miterlimit="10"/>
<path d="M346.769 382.812H319.015C319.015 382.812 331.945 413.032 359.452 410.384" stroke="#1D1615" stroke-width="0.25" stroke-miterlimit="10"/>
<path d="M199.641 414.733C199.641 414.733 220.125 419.666 238.299 390.562" stroke="#1D1615" stroke-width="0.25" stroke-miterlimit="10"/>
<path d="M255.732 351.891H236.352V361.575H255.732V351.891Z" fill="black"/>
<path d="M321.417 351.891H302.036V361.575H321.417V351.891Z" fill="black"/>
<path d="M294.169 351.891H264.728V361.575H294.169V351.891Z" fill="black"/>
<path d="M286.679 349.944H272.219V363.522H286.679V349.944Z" fill="white"/>
<path d="M197.863 429.882L166.643 720.192H257.433L285.446 431.089L197.863 429.882Z" fill="#4D87FA"/>
<path d="M289.25 429.882L288.575 720.192H373.38L370.836 431.089L289.25 429.882Z" fill="#4D87FA"/>
<path d="M356.18 460.154L345.146 326.085L384.272 324.631L384.609 326.669C389.879 358.875 389.347 391.769 383.012 423.781L374.575 466.489L356.167 460.154H356.18Z" fill="#D28A7B"/>
<path d="M354.791 437.294C351.546 459.362 337.578 477.743 337.578 477.743L374.575 495.683C393.54 461.309 387.088 441.63 381.61 430.959L354.804 437.294H354.791Z" fill="#D28A7B"/>
<path d="M337.578 477.743C337.578 477.743 332.866 497.838 340.395 513.74L364.228 519.815C364.228 519.815 361.1 502.044 366.344 491.685C366.344 491.685 367.227 510.975 374.094 519.387L380.027 514.973C380.027 514.973 375.172 497.708 380.169 480.469L337.591 477.73L337.578 477.743Z" fill="#D28A7B"/>
<path d="M346.483 515.129C346.483 515.129 343.407 497.384 344.874 484.597" stroke="#1D1615" stroke-width="0.25" stroke-miterlimit="10"/>
<path d="M355.778 517.66C355.778 517.66 351.883 501.862 355.232 486.506" stroke="#1D1615" stroke-width="0.25" stroke-miterlimit="10"/>
<path d="M111.837 269.993C123.714 262.568 139.37 266.164 146.795 278.055L197.317 368.948L181.844 386.862L103.775 304.964C96.3502 293.087 99.946 277.431 111.837 270.006V269.993Z" fill="#D28A7B"/>
<path d="M191.022 363.38C211.48 363.289 229.978 352.995 229.978 352.995L241.479 388.914C207.806 401.674 190.775 393.275 181.805 386.914L191.035 363.393L191.022 363.38Z" fill="#D28A7B"/>
<path d="M229.978 352.995C229.978 352.995 248.827 351.32 262.288 360.212L264.716 382.631C264.716 382.631 248.996 377.49 238.909 380.904C238.909 380.904 256.317 384.201 263.054 391.536L258.277 396.352C258.277 396.352 243.232 389.705 226.928 392.003L229.965 352.995H229.978Z" fill="#D28A7B"/>
<path d="M262.769 365.924C262.769 365.924 247.061 360.835 235.249 360.498" stroke="#1D1615" stroke-width="0.25" stroke-miterlimit="10"/>
<path d="M263.859 374.686C263.859 374.686 250.021 369.104 235.651 370.156" stroke="#1D1615" stroke-width="0.25" stroke-miterlimit="10"/>
<path d="M165.28 203.919L191.606 232.218L207.001 272.031L180.143 241.552L165.28 203.919Z" fill="#CB9824"/>
<path d="M203.406 190.64L157.998 218.004L189.918 270.487L219.723 250.158L203.406 190.64Z" fill="#E8C32E"/>
<path d="M165.28 203.919L180.143 241.552L207.001 272.031L184.453 280.365L163.372 251.56L148.664 214.785L165.28 203.919Z" fill="white"/>
<path d="M243.414 720.192L269.532 445.122H299.726L302.036 720.192" stroke="#1D1615" stroke-width="0.25" stroke-miterlimit="10"/>
<path d="M153.117 289.413L146.808 278.042" stroke="#1D1615" stroke-width="0.25" stroke-miterlimit="10"/>
<path d="M345.263 331.576L362.411 328.395" stroke="#1D1615" stroke-width="0.25" stroke-miterlimit="10"/>
</g>
</svg>
